<svg xmlns="http://www.w3.org/2000/svg" fill="none" viewBox="0 0 15 15">
  <path fill="#999" d="M7.49 0a5.504 5.504 0 0 0-5.498 5.497c0 1.393.878 3.36 2.608 5.848a39.22 39.22 0 0 0 2.562 3.285l.328.37.328-.37a39.272 39.272 0 0 0 2.561-3.285c1.73-2.488 2.608-4.455 2.608-5.848A5.504 5.504 0 0 0 7.49 0Zm2.174 10.837a39.878 39.878 0 0 1-2.174 2.829 39.84 39.84 0 0 1-2.17-2.822C3.717 8.54 2.87 6.69 2.87 5.497A4.626 4.626 0 0 1 7.49.877a4.626 4.626 0 0 1 4.62 4.62c0 1.192-.846 3.039-2.446 5.34Z"/>
  <path fill="#999" d="M7.489 2.032a3.248 3.248 0 0 0-3.245 3.244A3.248 3.248 0 0 0 7.49 8.521a3.248 3.248 0 0 0 3.244-3.245A3.248 3.248 0 0 0 7.49 2.032Zm0 5.612A2.37 2.37 0 0 1 5.12 5.276 2.37 2.37 0 0 1 7.49 2.91a2.37 2.37 0 0 1 2.367 2.367A2.37 2.37 0 0 1 7.49 7.644Z"/>
</svg>
