<svg xmlns="http://www.w3.org/2000/svg" fill="none" viewBox="0 0 15 15">
  <g fill="#999" clip-path="url(#a)">
    <path d="M14.606 11.572 11.57 9.547a.886.886 0 0 0-1.186.193l-.885 1.137a.378.378 0 0 1-.484.102l-.169-.093c-.557-.304-1.251-.682-2.65-2.08-1.397-1.4-1.776-2.094-2.08-2.65l-.093-.169a.378.378 0 0 1 .1-.486l1.137-.884a.887.887 0 0 0 .193-1.187L3.428.394A.882.882 0 0 0 2.24.127L.97.889a1.79 1.79 0 0 0-.816 1.06C-.304 3.615.04 6.49 4.275 10.725 7.644 14.094 10.152 15 11.875 15a4.43 4.43 0 0 0 1.175-.154 1.789 1.789 0 0 0 1.06-.816l.764-1.27a.882.882 0 0 0-.268-1.188Zm-.163.932-.762 1.27c-.168.288-.441.5-.762.59-1.538.423-4.224.073-8.29-3.992C.563 6.306.214 3.62.636 2.082c.091-.322.303-.595.591-.764l1.27-.761a.382.382 0 0 1 .516.115l1.1 1.652.923 1.384a.385.385 0 0 1-.084.515l-1.136.884a.875.875 0 0 0-.232 1.123l.09.164c.32.586.717 1.315 2.167 2.765 1.45 1.45 2.178 1.847 2.764 2.166l.164.09a.875.875 0 0 0 1.123-.231l.884-1.137a.385.385 0 0 1 .515-.083l3.036 2.025c.17.113.222.34.116.515ZM8.5 2.501a4.254 4.254 0 0 1 4.25 4.25.25.25 0 1 0 .5 0A4.755 4.755 0 0 0 8.5 2a.25.25 0 1 0 0 .5Z"/>
    <path d="M8.5 4.001a2.753 2.753 0 0 1 2.75 2.75.25.25 0 1 0 .5 0A3.253 3.253 0 0 0 8.5 3.5a.25.25 0 1 0 0 .5Z"/>
    <path d="M8.5 5.501c.69 0 1.249.56 1.25 1.25a.25.25 0 1 0 .5 0A1.752 1.752 0 0 0 8.5 5a.25.25 0 1 0 0 .5Z"/>
  </g>
  <defs>
    <clipPath id="a">
      <path fill="#fff" d="M0 0h15v15H0z"/>
    </clipPath>
  </defs>
</svg>
