<svg xmlns="http://www.w3.org/2000/svg" fill="none" viewBox="0 0 41 40">
  <g fill="#4985FF" clip-path="url(#a)">
    <path d="M39.703 0H9.958a.664.664 0 0 0-.661.667v10h1.322V1.333h28.423V38a.654.654 0 0 1-.61.667c-.056 0-.113-.005-.17-.006-.117-.004-.234-.006-.349-.018-.01 0-.019 0-.029-.004-2.159-.238-3.864-1.957-4.102-4.134 0-.01-.003-.02-.005-.028a4.714 4.714 0 0 1-.023-.477v-1.333a.664.664 0 0 0-.661-.667H10.619V20H9.297v12H4.009a.664.664 0 0 0-.661.667V34c.003 3.312 2.665 5.996 5.949 6h29.15a1.978 1.978 0 0 0 1.917-2V.667A.664.664 0 0 0 39.703 0ZM9.297 38.667C6.742 38.664 4.673 36.576 4.67 34v-.667h27.762V34c0 .22.013.44.037.658.006.058.017.114.025.171.022.162.049.322.084.48.012.056.027.11.04.166a6.081 6.081 0 0 0 .187.608c.06.165.128.326.203.486.016.032.03.066.046.096.083.17.174.333.273.493.014.021.025.043.039.067.107.17.224.334.348.493l.021.029a5.867 5.867 0 0 0 .906.922l-25.344-.002Z"/>
    <path d="M22.516 18.667c.175 0 .344-.07.467-.196l2.644-2.666a.67.67 0 0 0 0-.943l-2.644-2.667a.658.658 0 0 0-.467-.195H4.008C2.183 12 .703 13.492.703 15.333c0 1.841 1.48 3.334 3.305 3.334h18.508Zm-.17-5.23 1.88 1.896-1.88 1.896-.47-1.896.47-1.896ZM5.99 13.333H21.01l-.33 1.334H7.313V16H20.68l.33 1.333H5.991v-4Zm-3.966 2c0-1.104.888-2 1.983-2h.661v4h-.66a1.992 1.992 0 0 1-1.984-2ZM15.907 28.667h19.83a.664.664 0 0 0 .66-.667V8a.658.658 0 0 0-1.128-.471l-19.83 20a.67.67 0 0 0 0 .942.658.658 0 0 0 .468.196ZM35.076 9.609v1.724h-1.322v1.334h1.322V14h-1.322v1.333h1.322v1.334h-1.322V18h1.322v1.333h-1.322v1.334h1.322V22h-1.322v1.333h1.322v1.334h-1.322V26h1.322v1.333h-1.322V26h-1.322v1.333H31.11V26h-1.322v1.333h-1.322V26h-1.322v1.333h-1.322V26H24.5v1.333h-1.322V26h-1.322v1.333h-1.322V26h-1.322v1.333h-1.71L35.077 9.61Z"/>
    <path d="M25.481 24.667h6.29a.664.664 0 0 0 .66-.667v-6.343a.664.664 0 0 0-.66-.667.658.658 0 0 0-.468.195l-6.29 6.344a.67.67 0 0 0 .001.942.658.658 0 0 0 .467.196Zm5.629-5.4v4.066h-4.032l4.032-4.066ZM31.109 4h-13.22v1.333h13.22V4ZM33.092 6.667H15.906V8h17.186V6.667ZM15.905 20.666H11.94V22h3.965v-1.334ZM14.584 23.334H11.94v1.333h2.644v-1.334Z"/>
  </g>
  <defs>
    <clipPath id="a">
      <path fill="#fff" d="M0 0h39.66v40H0z" transform="translate(.703)"/>
    </clipPath>
  </defs>
</svg>
