<svg xmlns="http://www.w3.org/2000/svg" fill="none" viewBox="0 0 31 30">
  <g fill="#4985FF" clip-path="url(#a)">
    <path d="M11.95 21.023a.501.501 0 0 1-.324-.118l-3.235-2.729a.493.493 0 0 1 0-.754l3.235-2.729a.503.503 0 0 1 .705.056.492.492 0 0 1-.056.698l-2.789 2.352 2.789 2.352c.21.177.235.49.056.698a.5.5 0 0 1-.38.174ZM18.338 21.023a.5.5 0 0 1-.38-.174.492.492 0 0 1 .056-.698l2.788-2.352-2.788-2.352a.492.492 0 0 1-.057-.698.503.503 0 0 1 .705-.056l3.236 2.729a.493.493 0 0 1 0 .754l-3.236 2.73a.501.501 0 0 1-.324.117ZM13.999 23.07a.496.496 0 0 1-.49-.598l2.017-9.483a.5.5 0 0 1 .978.205l-2.017 9.483a.5.5 0 0 1-.488.394Z"/>
    <path d="M26.931 28.237H3.357C1.507 28.237 0 26.746 0 24.912V5.095C0 3.26 1.506 1.769 3.357 1.769h23.574c1.851 0 3.357 1.492 3.357 3.326v19.817c0 1.834-1.506 3.325-3.357 3.325ZM3.357 2.76C2.057 2.76 1 3.807 1 5.095v19.817c0 1.287 1.058 2.335 2.357 2.335h23.574c1.3 0 2.357-1.048 2.357-2.335V5.095c0-1.288-1.057-2.335-2.357-2.335H3.357Z"/>
    <path d="M29.788 9.7H.5a.498.498 0 0 1-.5-.496c0-.273.224-.495.5-.495h29.288c.277 0 .5.222.5.495a.498.498 0 0 1-.5.496ZM8.543 7.33a1.577 1.577 0 0 1-1.582-1.568c0-.864.71-1.567 1.582-1.567.873 0 1.583.703 1.583 1.567S9.416 7.33 8.543 7.33Zm0-2.145a.58.58 0 0 0-.582.577.58.58 0 0 0 .582.577.58.58 0 0 0 .583-.577.58.58 0 0 0-.583-.577ZM3.682 7.314A1.577 1.577 0 0 1 2.1 5.747c0-.864.71-1.567 1.582-1.567.873 0 1.583.703 1.583 1.567s-.71 1.567-1.583 1.567Zm0-2.144a.58.58 0 0 0-.582.577.58.58 0 0 0 .582.577.58.58 0 0 0 .582-.577.58.58 0 0 0-.582-.577ZM13.406 7.344a1.577 1.577 0 0 1-1.582-1.567c0-.864.71-1.567 1.582-1.567.873 0 1.583.703 1.583 1.567s-.71 1.567-1.583 1.567Zm0-2.144a.58.58 0 0 0-.582.577.58.58 0 0 0 .582.577.58.58 0 0 0 .583-.577.58.58 0 0 0-.583-.577Z"/>
  </g>
  <defs>
    <clipPath id="a">
      <path fill="#fff" d="M0 0h30.288v30H0z"/>
    </clipPath>
  </defs>
</svg>
