<svg xmlns="http://www.w3.org/2000/svg">
  <defs>
    <symbol id="icon-play-button" viewBox="0 0 32 32">
      <path fill="#4985ff" d="M32 16c0 8.837-7.163 16-16 16S0 24.837 0 16 7.163 0 16 0s16 7.163 16 16z" style="fill:var(--color2, #4985ff)"/>
      <path fill="#fff" d="M16 0C7.164 0 0 7.163 0 16s7.164 16 16 16 16-7.163 16-16S24.836 0 16 0zm5.53 16.848-8 5A1.001 1.001 0 0 1 11.999 21V10.999a.999.999 0 0 1 1.534-.844l-.004-.002 8 5a1 1 0 0 1 .004 1.694l-.004.002z" style="fill:var(--color3, #fff)"/>
    </symbol>
    <symbol id="icon-services" viewBox="0 0 32 32">
      <path fill="#4985ff" d="M30.988.39H7.772a.518.518 0 0 0-.516.518V8.715h1.032V1.43h22.184V30.059a.51.51 0 0 1-.475.509h-.002c-.044 0-.088-.004-.133-.005-.091-.003-.183-.005-.272-.014-.008 0-.015 0-.023-.003a3.633 3.633 0 0 1-3.224-3.612v-1.052a.518.518 0 0 0-.516-.518H8.286v-9.366H7.254v9.366H3.127a.518.518 0 0 0-.516.518v1.042c.002 2.585 2.08 4.68 4.643 4.683h22.751a1.544 1.544 0 0 0 1.496-1.543v-.019.001V.906a.518.518 0 0 0-.516-.518zM7.256 30.569c-1.994-.002-3.609-1.632-3.611-3.643v-.521h21.668v.521c0 .172.01.343.029.514.005.045.013.089.02.133.017.126.038.251.066.375.009.044.021.086.031.13.049.195.099.353.157.507l-.011-.033c.047.129.1.254.158.379.012.025.023.052.036.075.065.133.136.26.213.385.011.016.02.034.03.052.084.133.175.261.272.385l.016.023c.212.268.444.504.699.713l.008.006-19.781-.002z" />
      <path fill="#4985ff" d="M17.573 14.96a.51.51 0 0 0 .364-.153l2.064-2.081a.522.522 0 0 0 0-.736l-2.064-2.082a.51.51 0 0 0-.364-.152H3.128c-1.424 0-2.579 1.165-2.579 2.601s1.155 2.602 2.579 2.602h14.445zm-.132-4.082 1.467 1.48-1.467 1.48-.367-1.48.367-1.48zm-12.766-.082h11.723l-.258 1.041H5.707v1.04H16.14l.258 1.04H4.676v-3.122zM1.58 12.357c0-.862.693-1.561 1.548-1.561h.516v3.122h-.515a1.555 1.555 0 0 1-1.548-1.555v-.007zm10.835 10.408h15.477a.518.518 0 0 0 .515-.518V6.627a.514.514 0 0 0-.881-.36l-15.477 15.61a.522.522 0 0 0 0 .736.512.512 0 0 0 .365.153zM27.376 7.89v1.346h-1.032v1.041h1.032v1.04h-1.032v1.04h1.032v1.041h-1.032v1.04h1.032v1.04h-1.032v1.041h1.032v1.04h-1.032v1.04h1.032v1.041h-1.032v1.04h1.032v1.04h-1.032v-1.04h-1.032v1.04H24.28v-1.04h-1.032v1.04h-1.032v-1.04h-1.032v1.04h-1.032v-1.04H19.12v1.04h-1.032v-1.04h-1.032v1.04h-1.032v-1.04h-1.032v1.04h-1.335L27.374 7.887z" />
      <path fill="#4985ff" d="M19.888 19.643h4.909a.518.518 0 0 0 .515-.518V14.17a.518.518 0 0 0-.515-.518.511.511 0 0 0-.365.152l-4.909 4.951a.521.521 0 0 0 0 .735.512.512 0 0 0 .364.153zm4.393-4.215v3.173h-3.147l3.147-3.173zM24.28 3.512H13.962v1.04H24.28v-1.04zm1.548 2.082H12.415v1.04h13.413v-1.04zM12.414 16.52H9.319v1.041h3.095V16.52zm-1.031 2.082H9.319v1.04h2.064v-1.041z" />
    </symbol>
    <symbol id="icon-web-programming" viewBox="0 0 32 32">
      <path fill="#4985ff" d="M12.335 22.217h-.001a.517.517 0 0 1-.334-.122l.001.001-3.339-2.817a.508.508 0 0 1-.001-.778l.001-.001 3.339-2.817a.518.518 0 0 1 .728.057l.001.001a.506.506 0 0 1-.057.72l-.001.001-2.879 2.428 2.879 2.428a.508.508 0 0 1 .058.721.516.516 0 0 1-.391.18h-.001zm6.595 0h-.001a.515.515 0 0 1-.391-.179l-.001-.001a.506.506 0 0 1 .057-.72l.001-.001 2.878-2.428-2.878-2.428a.508.508 0 0 1-.059-.721l-.001.001a.517.517 0 0 1 .728-.057l-.001-.001 3.34 2.817a.508.508 0 0 1 .001.778l-.001.001-3.34 2.818a.514.514 0 0 1-.332.121h-.002zm-4.479 2.113h-.005a.512.512 0 0 1-.5-.621l-.001.003 2.082-9.789a.518.518 0 0 1 1.017.125c0 .03-.003.06-.008.089v-.003l-2.082 9.789a.518.518 0 0 1-.504.407z" />
      <path fill="#4985ff" d="M27.8 29.664H3.466c-1.91 0-3.465-1.539-3.465-3.432V5.776c0-1.894 1.555-3.433 3.465-3.433H27.8c1.911 0 3.465 1.54 3.465 3.433v20.456c0 1.893-1.555 3.432-3.465 3.432zM3.465 3.365c-1.342 0-2.433 1.081-2.433 2.41v20.456c0 1.329 1.092 2.41 2.433 2.41h24.334c1.342 0 2.433-1.082 2.433-2.41V5.775c0-1.33-1.091-2.41-2.433-2.41H3.465z" />
      <path fill="#4985ff" d="M30.749 10.529H.514A.514.514 0 0 1 0 10.017c0-.282.231-.511.516-.511h30.233c.286 0 .516.229.516.511a.514.514 0 0 1-.514.512h-.002zM8.819 8.083h-.005a1.628 1.628 0 0 1-1.628-1.618c0-.892.733-1.618 1.633-1.618.901 0 1.634.726 1.634 1.618S9.72 8.084 8.819 8.084zm0-2.215h-.002a.599.599 0 0 0-.599.595.6.6 0 0 0 .599.596h.005c.33 0 .597-.266.599-.595a.6.6 0 0 0-.599-.596h-.003zM3.801 8.066h-.005a1.628 1.628 0 0 1-1.628-1.617v-.001c0-.892.733-1.618 1.633-1.618.901 0 1.634.726 1.634 1.618s-.733 1.618-1.634 1.618zm0-2.213h-.002a.599.599 0 0 0-.599.595.6.6 0 0 0 .599.596h.004c.33 0 .597-.266.599-.595a.6.6 0 0 0-.599-.596h-.002zm10.037 2.244h-.005a1.628 1.628 0 0 1-1.628-1.617v-.001c0-.892.733-1.618 1.633-1.618.901 0 1.634.726 1.634 1.618s-.733 1.618-1.634 1.618zm0-2.213h-.002a.599.599 0 0 0-.599.595.6.6 0 0 0 .599.596h.005c.33 0 .597-.266.599-.595a.6.6 0 0 0-.599-.596h-.003z" />
    </symbol>
    <symbol id="icon-geo-tag" viewBox="0 0 32 32">
      <path  d="M15.979 0C9.505.007 4.258 5.253 4.25 11.726v.001c0 2.972 1.873 7.168 5.564 12.476a83.81 83.81 0 0 0 5.55 7.107l-.085-.099.7.789.7-.789a82.93 82.93 0 0 0 5.286-6.743l.177-.265c3.691-5.308 5.564-9.504 5.564-12.476C27.697 5.254 22.452.009 15.98 0h-.001zm4.638 23.119a84.697 84.697 0 0 1-4.741 6.16l.103-.125a83.574 83.574 0 0 1-4.451-5.754l-.179-.266c-3.42-4.915-5.227-8.862-5.227-11.407.007-5.44 4.416-9.849 9.855-9.856h.001c5.44.007 9.849 4.416 9.856 9.855v.001c0 2.543-1.805 6.483-5.218 11.392z"/>
      <path d="M15.977 4.335a6.93 6.93 0 0 0-6.923 6.92 6.93 6.93 0 0 0 6.925 6.923 6.93 6.93 0 0 0 6.921-6.922 6.93 6.93 0 0 0-6.92-6.921zm0 11.972a5.056 5.056 0 0 1-5.054-5.052 5.056 5.056 0 0 1 5.056-5.047 5.057 5.057 0 0 1 5.05 5.049 5.057 5.057 0 0 1-5.049 5.05z" />
    </symbol>
    <symbol id="icon-mail" viewBox="0 0 32 32">
      <path d="M28.094 3.823H3.913A3.917 3.917 0 0 0 0 7.738v16.525a3.917 3.917 0 0 0 3.913 3.915h24.175a3.917 3.917 0 0 0 3.913-3.917V7.736a3.913 3.913 0 0 0-3.906-3.913zm2.125 20.439a2.129 2.129 0 0 1-2.125 2.127H3.913a2.127 2.127 0 0 1-2.125-2.127V7.744c0-1.173.954-2.127 2.125-2.127h24.175c1.173 0 2.125.954 2.125 2.127v16.518h.006z" />
      <path d="m20.181 15.795 7.827-7.019a.897.897 0 0 0 .063-1.266l.001.001a.897.897 0 0 0-1.264-.065l.001-.001-10.795 9.685-2.103-1.877c-.006-.009-.013-.015-.013-.021a1.443 1.443 0 0 0-.144-.126l-.003-.002-8.567-7.663a.889.889 0 0 0-1.265.072l-.001.001a.892.892 0 0 0 .074 1.265l.001.001 7.919 7.078-7.887 7.381A.897.897 0 1 0 5.25 24.55l8.006-7.488 2.172 1.939a.89.89 0 0 0 1.192-.007l-.001.001 2.231-2.001 7.957 7.563a.886.886 0 0 0 1.267-.033.892.892 0 0 0-.033-1.262l-7.859-7.465z" />
    </symbol>
    <symbol id="icon-phone" viewBox="0 0 32 32">
      <path d="m31.159 24.687-6.477-4.32a1.887 1.887 0 0 0-2.527.408l-.003.004-1.888 2.426a.807.807 0 0 1-1.037.215l.004.002-.361-.198c-1.188-.649-2.669-1.455-5.653-4.437-2.98-2.987-3.789-4.467-4.437-5.653l-.198-.361a.808.808 0 0 1 .211-1.036l.002-.001 2.426-1.886a1.893 1.893 0 0 0 .407-2.539l.004.007L7.312.841A1.882 1.882 0 0 0 4.769.276l.008-.005-2.709 1.626A3.833 3.833 0 0 0 .334 4.131l-.007.027C-.65 7.712.084 13.845 9.118 22.88 16.305 30.067 21.656 32 25.331 32h.036c.879 0 1.73-.12 2.537-.344l-.066.016a3.84 3.84 0 0 0 2.252-1.723l.01-.017 1.63-2.709a1.879 1.879 0 0 0-.565-2.53l-.007-.004zm-.347 1.988-1.626 2.709a2.74 2.74 0 0 1-1.626 1.259c-3.281.902-9.011.156-17.685-8.516C1.201 13.453.456 7.723 1.357 4.442a2.759 2.759 0 0 1 1.261-1.63l2.709-1.623a.816.816 0 0 1 1.099.242l.002.003 2.347 3.524 1.969 2.953a.817.817 0 0 1-.177 1.097l-.002.001-2.423 1.886a1.864 1.864 0 0 0-.49 2.405l-.005-.009.192.35c.683 1.25 1.53 2.805 4.623 5.899s4.646 3.94 5.897 4.621l.35.192a1.866 1.866 0 0 0 2.393-.488l.003-.004 1.886-2.426a.819.819 0 0 1 1.101-.175l-.003-.002 6.477 4.32a.813.813 0 0 1 .247 1.099zM18.133 5.335a9.076 9.076 0 0 1 9.067 9.066.533.533 0 1 0 1.066 0c-.005-5.595-4.539-10.129-10.133-10.135h-.001a.533.533 0 1 0 0 1.066z" />
      <path d="M18.133 8.535A5.874 5.874 0 0 1 24 14.401a.533.533 0 1 0 1.066 0 6.939 6.939 0 0 0-6.933-6.935.533.533 0 1 0 0 1.066z" />
      <path d="M18.133 11.735a2.67 2.67 0 0 1 2.667 2.667.533.533 0 1 0 1.066 0 3.737 3.737 0 0 0-3.733-3.735.533.533 0 1 0 0 1.066z" />
    </symbol>
    <symbol id="icon-right-arrow" viewBox="0 0 32 32">
      <path d="M10.022 30.09a.988.988 0 0 1-.708.298H9.304a1.018 1.018 0 0 1-.719-1.738L21.235 16 8.585 3.35a1.018 1.018 0 0 1 1.44-1.44l13.366 13.37a1.017 1.017 0 0 1 0 1.44l-13.37 13.37z"/>
    </symbol>
  </defs>
</svg>
